PathFileType	4	(X/Y/Z)	C:\Users\WrightLab\Desktop\Jo\P3_24.trc
DataRate	CameraRate	NumFrames	NumMarkers	Units	OrigDataRate	OrigDataStartFrame	OrigNumFrames
100.00	100.00	       10	19	mm	100.00	153	       609
Frame#	Time	Headset_Front			Headset_Back			Headset_Left			Headset_Right			Left_Shoulder			Right_Shoulder			Sternum			C7			Left Elbow			Right Elbow			Left Wrist			Right Wrist			Left ASIS			Right ASIS			S2			Left Knee			Right Knee			Left Ankle			Right Ankle			
		X1	Y1	Z1	X2	Y2	Z2	X3	Y3	Z3	X4	Y4	Z4	X5	Y5	Z5	X6	Y6	Z6	X7	Y7	Z7	X8	Y8	Z8	X9	Y9	Z9	X10	Y10	Z10	X11	Y11	Z11	X12	Y12	Z12	X13	Y13	Z13	X14	Y14	Z14	X15	Y15	Z15	X16	Y16	Z16	X17	Y17	Z17	X18	Y18	Z18	X19	Y19	Z19	

153	1.520	-116.69954	1413.69958	1126.48779	4.27761	1633.20227	1296.05469	-132.22046	1542.33667	1291.53503	17.78166	1485.29883	1128.65881	-162.16722	1340.52649	1355.60229	187.59465	1356.17505	1332.10645	0.48051	1226.94189	1217.75891	17.49612	1404.18384	1389.65735	-322.65134	1054.93677	1335.16504	313.56439	1024.53101	1344.05225	-416.04626	923.79437	1203.02039	297.35120	888.06946	1161.04456	-78.61425	860.19629	1240.56775				28.52898	952.35669	1459.02039	-54.17901	466.98242	1165.11902	169.69649	465.40231	1422.81030	-16.20404	145.55544	1106.62488	148.71428	169.46234	1593.32593	
154	1.530	-119.09959	1412.48364	1118.68298	1.98963	1632.67664	1286.14380	-134.39340	1541.90356	1282.63074				-164.50890	1340.51624	1348.23340	185.90669	1355.28760	1322.25354	-2.05992	1226.59155	1207.96399	16.37665	1403.85815	1381.15222	-323.38272	1053.02515	1329.72363	310.51047	1023.19189	1333.42358	-417.73187	921.41583	1198.82483	295.25992	887.30469	1150.91333	-81.05025	859.26471	1229.21655				28.42663	951.21454	1447.62610	-54.16806	465.16464	1157.00806	169.54395	464.25577	1412.98083	-15.78995	144.14923	1099.11230	149.82185	172.44048	1590.03369	
155	1.540	-122.48730	1411.49390	1109.38586	-0.02921	1632.28369	1275.94263	-136.47530	1541.73975	1273.41284	10.47765	1484.46838	1108.31921	-166.42941	1340.34302	1339.82227	183.90463	1354.89917	1311.00391	-4.76247	1226.84558	1198.03357	14.98132	1403.48792	1371.56860	-324.26505	1051.48047	1324.60645	308.04236	1022.33203	1322.67285	-419.48956	919.71631	1194.72205	291.93570	886.18439	1140.49109	-83.34567	859.55872	1215.45361				28.63110	950.48865	1435.89905	-56.05560	464.42126	1149.51013	170.21103	463.33356	1401.82422	-15.81436	142.54753	1095.39404	151.06906	175.69322	1585.87195	
156	1.550	-125.25541	1410.87659	1100.99658	-2.34499	1632.33472	1265.72559	-138.70871	1541.49829	1264.39526	7.98116	1484.22632	1097.67822	-167.76585	1339.04443	1331.95581	182.26488	1354.84241	1300.99243	-7.67601	1227.09521	1188.15540	11.85256	1404.73621	1362.18579	-324.97672	1049.99744	1319.47327	305.86584	1022.57123	1313.73206	-420.46854	917.20349	1190.68774	288.47998	885.59912	1130.43042	-86.22676	859.87305	1206.07349				28.14895	949.95337	1424.22632	-56.66167	463.98944	1142.18616	170.62163	463.11728	1389.03674	-15.91917	140.85193	1090.60120	152.50737	178.88037	1581.26672	
157	1.560	-128.64690	1410.63293	1091.69434	-4.32929	1632.36536	1255.34692	-140.70123	1541.58264	1254.93140	4.88875	1483.77979	1089.74854	-169.89079	1339.33240	1324.00476	179.58765	1354.61743	1290.00952	-10.64762	1227.92944	1178.29211	9.96987	1404.78308	1353.20288	-325.49481	1048.89124	1314.45972	303.36868	1022.46649	1303.14648	-421.54694	915.27716	1188.25635	285.32263	884.98962	1120.93579	-88.38799	859.98199	1194.36938				28.50687	949.73273	1411.95105	-57.28218	463.65192	1133.01025	171.23579	462.37662	1376.62659	-16.20165	139.51523	1086.34082	154.06531	182.82367	1576.26038	
158	1.570	-131.63687	1410.45935	1083.10315	-6.62521	1632.48694	1245.19348	-143.34538	1541.92651	1245.66748	2.63788	1482.38538	1079.64648	-171.92458	1339.54028	1316.15991	177.61192	1354.94458	1278.71094	-13.75359	1228.56445	1167.44958	8.67654	1404.80920	1343.64880	-325.42145	1047.76611	1309.51904	300.28394	1022.52264	1293.00476	-424.10336	913.91888	1184.58142	281.90402	884.17621	1111.09192	-90.54604	860.88135	1182.68982				28.12408	949.60132	1399.70630	-59.27734	462.81708	1124.13904	172.19220	462.08133	1362.55640	-17.58050	138.15297	1084.44604	155.86209	186.80397	1569.78699	
159	1.580	-134.73436	1409.99719	1074.23035	-9.16859	1633.21191	1234.71057	-146.30272	1542.65979	1236.38232	-0.73170	1482.54626	1071.25061	-173.85226	1339.81152	1308.23328	175.37767	1355.77612	1268.49744	-17.26001	1229.51355	1158.83765	7.52631	1404.59033	1333.82678	-326.08136	1046.61597	1304.83276	296.87158	1022.62610	1283.04517	-424.81805	912.06134	1181.49878	277.90689	883.62866	1101.41833	-92.81446	861.74805	1171.20276				28.06940	949.83551	1387.18140	-60.73874	463.31519	1112.14209	173.41173	460.70236	1347.05273	-17.82024	138.23584	1080.24170	158.26866	191.42059	1562.08386	
160	1.590	-137.81493	1410.03430	1065.45264	-11.48173	1633.86328	1224.47021	-148.90472	1543.04980	1227.08533	-4.53327	1482.54517	1060.11572	-175.98447	1340.24158	1300.32825	172.94884	1356.60413	1257.21985	-20.07077	1230.56750	1148.92261	5.73952	1405.24109	1324.10632	-325.78989	1045.48804	1300.11670	293.26804	1023.23444	1271.22119	-425.58493	910.16431	1177.97034	274.39685	883.25305	1091.86194	-94.65372	863.01086	1159.88354				26.99158	950.56653	1375.35217	-62.02706	463.91879	1102.97974	174.59544	460.03055	1330.32385	-18.11701	137.72574	1078.56641	160.89798	196.00133	1552.73254	
161	1.600	-141.13878	1410.37109	1056.26135	-14.03874	1634.67529	1214.03076	-151.45645	1543.84131	1217.52576	-7.81517	1482.96521	1050.26123	-178.45512	1341.22388	1292.80969	170.75781	1357.77271	1246.82751	-23.00058	1231.95105	1139.28894	3.88495	1405.66309	1313.97461	-325.20959	1044.60315	1295.26050	289.97501	1024.41492	1261.41479	-426.28604	908.61591	1175.55969	270.76440	882.21155	1082.34412	-97.04769	864.55737	1149.08569				26.35474	951.72479	1363.62500	-64.07910	463.25388	1095.72437	176.15865	458.46317	1312.64990	-19.12421	137.77930	1074.04749	163.68358	200.72214	1542.73193	
162	1.610	-144.31348	1410.25085	1047.35791	-16.78135	1635.69800	1203.74011	-154.09213	1544.84204	1208.08057	-11.34387	1483.63318	1040.83411	-180.49918	1341.97009	1284.26660	168.27441	1358.77112	1236.74402	-26.30292	1233.92957	1129.13635	1.36948	1406.50708	1304.54102	-325.58215	1044.38855	1290.47437	286.43909	1025.89111	1251.32764	-426.74969	906.48639	1172.75244	267.03461	882.36273	1072.42920	-99.43181	866.30408	1138.23376				25.48832	952.88855	1351.75464	-64.95345	463.56039	1090.09570	177.83328	457.07019	1294.41846	-19.12397	137.08223	1073.34839	166.69461	205.30083	1530.34509	
